<mxfile host="app.diagrams.net" modified="2023-09-27T20:35:20.625Z" agent="Mozilla/5.0 (Windows NT 10.0; Win64; x64) AppleWebKit/537.36 (KHTML, like Gecko) Chrome/116.0.0.0 Safari/537.36" etag="F2PWLTPme_FijybE42Sk" version="21.8.0" type="gitlab">
  <diagram id="C5RBs43oDa-KdzZeNtuy" name="Page-1">
    <mxGraphModel dx="1365" dy="594" grid="1" gridSize="10" guides="1" tooltips="1" connect="1" arrows="1" fold="1" page="1" pageScale="1" pageWidth="827" pageHeight="1169" math="0" shadow="0">
      <root>
        <mxCell id="WIyWlLk6GJQsqaUBKTNV-0" />
        <mxCell id="WIyWlLk6GJQsqaUBKTNV-1" parent="WIyWlLk6GJQsqaUBKTNV-0" />
        <mxCell id="11qfxfKftVNCVq5FT_Hp-2" value="" style="edgeStyle=orthogonalEdgeStyle;rounded=0;orthogonalLoop=1;jettySize=auto;html=1;" edge="1" parent="WIyWlLk6GJQsqaUBKTNV-1" source="11qfxfKftVNCVq5FT_Hp-0" target="11qfxfKftVNCVq5FT_Hp-1">
          <mxGeometry relative="1" as="geometry" />
        </mxCell>
        <mxCell id="11qfxfKftVNCVq5FT_Hp-0" value="START" style="ellipse;whiteSpace=wrap;html=1;" vertex="1" parent="WIyWlLk6GJQsqaUBKTNV-1">
          <mxGeometry x="300" y="40" width="120" height="80" as="geometry" />
        </mxCell>
        <mxCell id="11qfxfKftVNCVq5FT_Hp-4" value="" style="edgeStyle=orthogonalEdgeStyle;rounded=0;orthogonalLoop=1;jettySize=auto;html=1;" edge="1" parent="WIyWlLk6GJQsqaUBKTNV-1" source="11qfxfKftVNCVq5FT_Hp-1" target="11qfxfKftVNCVq5FT_Hp-3">
          <mxGeometry relative="1" as="geometry" />
        </mxCell>
        <mxCell id="11qfxfKftVNCVq5FT_Hp-1" value="Initialize the variable blockType to the player coordinates" style="whiteSpace=wrap;html=1;" vertex="1" parent="WIyWlLk6GJQsqaUBKTNV-1">
          <mxGeometry x="300" y="210" width="120" height="60" as="geometry" />
        </mxCell>
        <mxCell id="11qfxfKftVNCVq5FT_Hp-5" style="edgeStyle=orthogonalEdgeStyle;rounded=0;orthogonalLoop=1;jettySize=auto;html=1;exitX=0;exitY=0;exitDx=0;exitDy=0;" edge="1" parent="WIyWlLk6GJQsqaUBKTNV-1" source="11qfxfKftVNCVq5FT_Hp-3" target="11qfxfKftVNCVq5FT_Hp-6">
          <mxGeometry relative="1" as="geometry">
            <mxPoint x="170" y="340" as="targetPoint" />
          </mxGeometry>
        </mxCell>
        <mxCell id="11qfxfKftVNCVq5FT_Hp-9" value="WOOD" style="edgeLabel;html=1;align=center;verticalAlign=middle;resizable=0;points=[];" vertex="1" connectable="0" parent="11qfxfKftVNCVq5FT_Hp-5">
          <mxGeometry x="-0.3538" y="2" relative="1" as="geometry">
            <mxPoint as="offset" />
          </mxGeometry>
        </mxCell>
        <mxCell id="11qfxfKftVNCVq5FT_Hp-18" style="edgeStyle=orthogonalEdgeStyle;rounded=0;orthogonalLoop=1;jettySize=auto;html=1;exitX=0;exitY=1;exitDx=0;exitDy=0;" edge="1" parent="WIyWlLk6GJQsqaUBKTNV-1" source="11qfxfKftVNCVq5FT_Hp-3" target="11qfxfKftVNCVq5FT_Hp-19">
          <mxGeometry relative="1" as="geometry">
            <mxPoint x="270" y="470" as="targetPoint" />
          </mxGeometry>
        </mxCell>
        <mxCell id="11qfxfKftVNCVq5FT_Hp-20" value="LEAVES" style="edgeLabel;html=1;align=center;verticalAlign=middle;resizable=0;points=[];" vertex="1" connectable="0" parent="11qfxfKftVNCVq5FT_Hp-18">
          <mxGeometry x="-0.1565" y="2" relative="1" as="geometry">
            <mxPoint as="offset" />
          </mxGeometry>
        </mxCell>
        <mxCell id="11qfxfKftVNCVq5FT_Hp-25" style="edgeStyle=orthogonalEdgeStyle;rounded=0;orthogonalLoop=1;jettySize=auto;html=1;exitX=1;exitY=0;exitDx=0;exitDy=0;" edge="1" parent="WIyWlLk6GJQsqaUBKTNV-1" source="11qfxfKftVNCVq5FT_Hp-3">
          <mxGeometry relative="1" as="geometry">
            <mxPoint x="490" y="340" as="targetPoint" />
          </mxGeometry>
        </mxCell>
        <mxCell id="11qfxfKftVNCVq5FT_Hp-27" value="STONE" style="edgeLabel;html=1;align=center;verticalAlign=middle;resizable=0;points=[];" vertex="1" connectable="0" parent="11qfxfKftVNCVq5FT_Hp-25">
          <mxGeometry x="-0.2741" y="-5" relative="1" as="geometry">
            <mxPoint as="offset" />
          </mxGeometry>
        </mxCell>
        <mxCell id="11qfxfKftVNCVq5FT_Hp-28" style="edgeStyle=orthogonalEdgeStyle;rounded=0;orthogonalLoop=1;jettySize=auto;html=1;exitX=1;exitY=1;exitDx=0;exitDy=0;" edge="1" parent="WIyWlLk6GJQsqaUBKTNV-1">
          <mxGeometry relative="1" as="geometry">
            <mxPoint x="580" y="430" as="targetPoint" />
            <mxPoint x="380" y="400" as="sourcePoint" />
            <Array as="points">
              <mxPoint x="581" y="400" />
            </Array>
          </mxGeometry>
        </mxCell>
        <mxCell id="11qfxfKftVNCVq5FT_Hp-32" value="IRON_ORE" style="edgeLabel;html=1;align=center;verticalAlign=middle;resizable=0;points=[];" vertex="1" connectable="0" parent="11qfxfKftVNCVq5FT_Hp-28">
          <mxGeometry x="0.0499" y="-4" relative="1" as="geometry">
            <mxPoint as="offset" />
          </mxGeometry>
        </mxCell>
        <mxCell id="11qfxfKftVNCVq5FT_Hp-36" value="" style="edgeStyle=orthogonalEdgeStyle;rounded=0;orthogonalLoop=1;jettySize=auto;html=1;" edge="1" parent="WIyWlLk6GJQsqaUBKTNV-1" source="11qfxfKftVNCVq5FT_Hp-3" target="11qfxfKftVNCVq5FT_Hp-35">
          <mxGeometry relative="1" as="geometry" />
        </mxCell>
        <mxCell id="11qfxfKftVNCVq5FT_Hp-37" value="AIR" style="edgeLabel;html=1;align=center;verticalAlign=middle;resizable=0;points=[];" vertex="1" connectable="0" parent="11qfxfKftVNCVq5FT_Hp-36">
          <mxGeometry x="-0.1556" relative="1" as="geometry">
            <mxPoint as="offset" />
          </mxGeometry>
        </mxCell>
        <mxCell id="11qfxfKftVNCVq5FT_Hp-41" style="edgeStyle=orthogonalEdgeStyle;rounded=0;orthogonalLoop=1;jettySize=auto;html=1;exitX=0.5;exitY=1;exitDx=0;exitDy=0;" edge="1" parent="WIyWlLk6GJQsqaUBKTNV-1" source="11qfxfKftVNCVq5FT_Hp-3">
          <mxGeometry relative="1" as="geometry">
            <mxPoint x="430" y="500" as="targetPoint" />
          </mxGeometry>
        </mxCell>
        <mxCell id="11qfxfKftVNCVq5FT_Hp-43" value="Invalid blockType" style="edgeLabel;html=1;align=center;verticalAlign=middle;resizable=0;points=[];" vertex="1" connectable="0" parent="11qfxfKftVNCVq5FT_Hp-41">
          <mxGeometry x="-0.0698" y="-1" relative="1" as="geometry">
            <mxPoint x="24" y="-1" as="offset" />
          </mxGeometry>
        </mxCell>
        <mxCell id="11qfxfKftVNCVq5FT_Hp-3" value="blockType ?" style="rhombus;whiteSpace=wrap;html=1;" vertex="1" parent="WIyWlLk6GJQsqaUBKTNV-1">
          <mxGeometry x="320" y="340" width="80" height="80" as="geometry" />
        </mxCell>
        <mxCell id="11qfxfKftVNCVq5FT_Hp-8" value="" style="edgeStyle=orthogonalEdgeStyle;rounded=0;orthogonalLoop=1;jettySize=auto;html=1;" edge="1" parent="WIyWlLk6GJQsqaUBKTNV-1" source="11qfxfKftVNCVq5FT_Hp-6" target="11qfxfKftVNCVq5FT_Hp-7">
          <mxGeometry relative="1" as="geometry" />
        </mxCell>
        <mxCell id="11qfxfKftVNCVq5FT_Hp-6" value="print &quot;You gather wood from the tree.&quot;" style="rounded=0;whiteSpace=wrap;html=1;" vertex="1" parent="WIyWlLk6GJQsqaUBKTNV-1">
          <mxGeometry x="110" y="310" width="120" height="60" as="geometry" />
        </mxCell>
        <mxCell id="11qfxfKftVNCVq5FT_Hp-7" value="Wood is added to the inventory" style="rounded=0;whiteSpace=wrap;html=1;" vertex="1" parent="WIyWlLk6GJQsqaUBKTNV-1">
          <mxGeometry x="-90" y="310" width="120" height="60" as="geometry" />
        </mxCell>
        <mxCell id="11qfxfKftVNCVq5FT_Hp-22" value="" style="edgeStyle=orthogonalEdgeStyle;rounded=0;orthogonalLoop=1;jettySize=auto;html=1;" edge="1" parent="WIyWlLk6GJQsqaUBKTNV-1" source="11qfxfKftVNCVq5FT_Hp-19">
          <mxGeometry relative="1" as="geometry">
            <mxPoint x="140" y="570" as="targetPoint" />
          </mxGeometry>
        </mxCell>
        <mxCell id="11qfxfKftVNCVq5FT_Hp-19" value="print &quot;You gather leaves from the tree.&quot;" style="rounded=0;whiteSpace=wrap;html=1;" vertex="1" parent="WIyWlLk6GJQsqaUBKTNV-1">
          <mxGeometry x="80" y="430" width="120" height="60" as="geometry" />
        </mxCell>
        <mxCell id="11qfxfKftVNCVq5FT_Hp-23" value="Leaves are added to the inventory" style="rounded=0;whiteSpace=wrap;html=1;" vertex="1" parent="WIyWlLk6GJQsqaUBKTNV-1">
          <mxGeometry x="80" y="570" width="120" height="60" as="geometry" />
        </mxCell>
        <mxCell id="11qfxfKftVNCVq5FT_Hp-34" value="" style="edgeStyle=orthogonalEdgeStyle;rounded=0;orthogonalLoop=1;jettySize=auto;html=1;" edge="1" parent="WIyWlLk6GJQsqaUBKTNV-1" source="11qfxfKftVNCVq5FT_Hp-26" target="11qfxfKftVNCVq5FT_Hp-33">
          <mxGeometry relative="1" as="geometry" />
        </mxCell>
        <mxCell id="11qfxfKftVNCVq5FT_Hp-26" value="print &quot;You gather stones from the ground.&quot;" style="rounded=0;whiteSpace=wrap;html=1;" vertex="1" parent="WIyWlLk6GJQsqaUBKTNV-1">
          <mxGeometry x="490" y="310" width="120" height="60" as="geometry" />
        </mxCell>
        <mxCell id="11qfxfKftVNCVq5FT_Hp-31" value="" style="edgeStyle=orthogonalEdgeStyle;rounded=0;orthogonalLoop=1;jettySize=auto;html=1;" edge="1" parent="WIyWlLk6GJQsqaUBKTNV-1" source="11qfxfKftVNCVq5FT_Hp-29" target="11qfxfKftVNCVq5FT_Hp-30">
          <mxGeometry relative="1" as="geometry" />
        </mxCell>
        <mxCell id="11qfxfKftVNCVq5FT_Hp-29" value="print &quot;You mine iron ore from the ground.&quot;" style="rounded=0;whiteSpace=wrap;html=1;" vertex="1" parent="WIyWlLk6GJQsqaUBKTNV-1">
          <mxGeometry x="520" y="430" width="120" height="60" as="geometry" />
        </mxCell>
        <mxCell id="11qfxfKftVNCVq5FT_Hp-30" value="Iron ore is added to your inventory" style="rounded=0;whiteSpace=wrap;html=1;" vertex="1" parent="WIyWlLk6GJQsqaUBKTNV-1">
          <mxGeometry x="520" y="570" width="120" height="60" as="geometry" />
        </mxCell>
        <mxCell id="11qfxfKftVNCVq5FT_Hp-33" value="Stone is added to your inventory" style="rounded=0;whiteSpace=wrap;html=1;" vertex="1" parent="WIyWlLk6GJQsqaUBKTNV-1">
          <mxGeometry x="690" y="310" width="120" height="60" as="geometry" />
        </mxCell>
        <mxCell id="11qfxfKftVNCVq5FT_Hp-49" style="edgeStyle=orthogonalEdgeStyle;rounded=0;orthogonalLoop=1;jettySize=auto;html=1;entryX=0.5;entryY=0;entryDx=0;entryDy=0;" edge="1" parent="WIyWlLk6GJQsqaUBKTNV-1" source="11qfxfKftVNCVq5FT_Hp-35" target="11qfxfKftVNCVq5FT_Hp-48">
          <mxGeometry relative="1" as="geometry" />
        </mxCell>
        <mxCell id="11qfxfKftVNCVq5FT_Hp-35" value="print &quot;Nothing to interact with here.&quot;" style="whiteSpace=wrap;html=1;" vertex="1" parent="WIyWlLk6GJQsqaUBKTNV-1">
          <mxGeometry x="230" y="500" width="120" height="60" as="geometry" />
        </mxCell>
        <mxCell id="11qfxfKftVNCVq5FT_Hp-50" style="edgeStyle=orthogonalEdgeStyle;rounded=0;orthogonalLoop=1;jettySize=auto;html=1;entryX=0.5;entryY=0;entryDx=0;entryDy=0;" edge="1" parent="WIyWlLk6GJQsqaUBKTNV-1" source="11qfxfKftVNCVq5FT_Hp-42" target="11qfxfKftVNCVq5FT_Hp-48">
          <mxGeometry relative="1" as="geometry" />
        </mxCell>
        <mxCell id="11qfxfKftVNCVq5FT_Hp-42" value="print &quot;Unrecognized block. Cannot interact.&quot;" style="rounded=0;whiteSpace=wrap;html=1;" vertex="1" parent="WIyWlLk6GJQsqaUBKTNV-1">
          <mxGeometry x="370" y="500" width="120" height="60" as="geometry" />
        </mxCell>
        <mxCell id="11qfxfKftVNCVq5FT_Hp-53" style="edgeStyle=orthogonalEdgeStyle;rounded=0;orthogonalLoop=1;jettySize=auto;html=1;exitX=0.5;exitY=1;exitDx=0;exitDy=0;" edge="1" parent="WIyWlLk6GJQsqaUBKTNV-1" source="11qfxfKftVNCVq5FT_Hp-23" target="11qfxfKftVNCVq5FT_Hp-48">
          <mxGeometry relative="1" as="geometry" />
        </mxCell>
        <mxCell id="11qfxfKftVNCVq5FT_Hp-54" style="edgeStyle=orthogonalEdgeStyle;rounded=0;orthogonalLoop=1;jettySize=auto;html=1;exitX=0.5;exitY=1;exitDx=0;exitDy=0;" edge="1" parent="WIyWlLk6GJQsqaUBKTNV-1" source="11qfxfKftVNCVq5FT_Hp-30" target="11qfxfKftVNCVq5FT_Hp-48">
          <mxGeometry relative="1" as="geometry" />
        </mxCell>
        <mxCell id="11qfxfKftVNCVq5FT_Hp-57" style="edgeStyle=orthogonalEdgeStyle;rounded=0;orthogonalLoop=1;jettySize=auto;html=1;exitX=0.5;exitY=1;exitDx=0;exitDy=0;" edge="1" parent="WIyWlLk6GJQsqaUBKTNV-1" source="11qfxfKftVNCVq5FT_Hp-33" target="11qfxfKftVNCVq5FT_Hp-48">
          <mxGeometry relative="1" as="geometry" />
        </mxCell>
        <mxCell id="11qfxfKftVNCVq5FT_Hp-59" style="edgeStyle=orthogonalEdgeStyle;rounded=0;orthogonalLoop=1;jettySize=auto;html=1;exitX=0.5;exitY=1;exitDx=0;exitDy=0;" edge="1" parent="WIyWlLk6GJQsqaUBKTNV-1" source="11qfxfKftVNCVq5FT_Hp-7" target="11qfxfKftVNCVq5FT_Hp-48">
          <mxGeometry relative="1" as="geometry" />
        </mxCell>
        <mxCell id="11qfxfKftVNCVq5FT_Hp-61" style="edgeStyle=orthogonalEdgeStyle;rounded=0;orthogonalLoop=1;jettySize=auto;html=1;" edge="1" parent="WIyWlLk6GJQsqaUBKTNV-1" source="11qfxfKftVNCVq5FT_Hp-48" target="11qfxfKftVNCVq5FT_Hp-60">
          <mxGeometry relative="1" as="geometry" />
        </mxCell>
        <mxCell id="11qfxfKftVNCVq5FT_Hp-48" value="waitForEnter()" style="whiteSpace=wrap;html=1;rounded=0;" vertex="1" parent="WIyWlLk6GJQsqaUBKTNV-1">
          <mxGeometry x="300" y="620" width="120" height="60" as="geometry" />
        </mxCell>
        <mxCell id="11qfxfKftVNCVq5FT_Hp-60" value="STOP" style="ellipse;whiteSpace=wrap;html=1;" vertex="1" parent="WIyWlLk6GJQsqaUBKTNV-1">
          <mxGeometry x="300" y="740" width="120" height="80" as="geometry" />
        </mxCell>
      </root>
    </mxGraphModel>
  </diagram>
</mxfile>
